# xmcd CD database file
#
# Track frame offsets:
#	150
#	13240
#	27750
#	43290
#	58380
#	75250
#	87804
#	100222
#	115245
#	126852
#	143382
#	157225
#
# Disc length: 2276 seconds
#
# Revision: 2
# Processed by: cddbd v1.5.2PL0 Copyright (c) Steve Scherf et al.
# Submitted via: SMTP 1.0
#
DISCID=9a08e20c
DTITLE=Various Artist - The Blues [CD1]
DYEAR=1994
DGENRE=Blues
TTITLE0=Blind Lemon Jefferson - See That My Grave Is Kept Clean
TTITLE1=Son House - My Black Mama
TTITLE2=Henry Thomas - Bull Doze Blues
TTITLE3=Blind Willie McTell - Travelin' Blues
TTITLE4=Cannon's Jug Stompers - Minglewood Blues
TTITLE5=Roosevelt Sykes - The Honey Dripper
TTITLE6=Blind Mamie Forehand - Honey In The Rock
TTITLE7=Frank Stokes - How Long
TTITLE8=Furry Lewis - Billy Lyons and Stack O' Lee
TTITLE9=Tommy Johnson - Canned Heat Blues
TTITLE10=Muddy Waters - I Be's Trouble
TTITLE11=Walter "Buddy Boy" Hawkins - Voice Throwin' Blues
EXTD=
EXTT0=
EXTT1=
EXTT2=
EXTT3=
EXTT4=
EXTT5=
EXTT6=
EXTT7=
EXTT8=
EXTT9=
EXTT10=
EXTT11=
PLAYORDER=
